<svg version="1.1" viewBox="0.0 0.0 600.0 371.0" fill="none" stroke="none" stroke-linecap="square" stroke-miterlimit="10" width="600" height="371" xmlns:xlink="http://www.w3.org/1999/xlink" xmlns="http://www.w3.org/2000/svg"><path fill="#ffffff" d="M0 0L600.0 0L600.0 371.0L0 371.0L0 0Z" fill-rule="nonzero"/><path stroke="#333333" stroke-width="1.0" stroke-linecap="butt" d="M111.5 53.5L111.5 298.5" fill-rule="nonzero"/><path stroke="#cccccc" stroke-width="1.0" stroke-linecap="butt" d="M229.5 53.5L229.5 298.5" fill-rule="nonzero"/><path stroke="#cccccc" stroke-width="1.0" stroke-linecap="butt" d="M348.5 53.5L348.5 298.5" fill-rule="nonzero"/><path stroke="#cccccc" stroke-width="1.0" stroke-linecap="butt" d="M467.5 53.5L467.5 298.5" fill-rule="nonzero"/><path stroke="#cccccc" stroke-width="1.0" stroke-linecap="butt" d="M99.5 298.5L581.5 298.5" fill-rule="nonzero"/><path stroke="#cccccc" stroke-width="1.0" stroke-linecap="butt" d="M99.5 237.5L581.5 237.5" fill-rule="nonzero"/><path stroke="#cccccc" stroke-width="1.0" stroke-linecap="butt" d="M99.5 175.5L581.5 175.5" fill-rule="nonzero"/><path stroke="#cccccc" stroke-width="1.0" stroke-linecap="butt" d="M99.5 114.5L581.5 114.5" fill-rule="nonzero"/><path stroke="#cccccc" stroke-width="1.0" stroke-linecap="butt" d="M99.5 53.5L581.5 53.5" fill-rule="nonzero"/><clipPath id="id_0"><path d="M99.55 53.416668L581.45 53.416668L581.45 298.45L99.55 298.45L99.55 53.416668Z" clip-rule="nonzero"/></clipPath><path stroke="#4285f4" stroke-width="2.0" stroke-linecap="butt" stroke-opacity="0.4" clip-path="url(#id_0)" d="M112.0 183.7472C112.0 183.7472 114.666664 163.81258 116.0 158.26642C117.333336 152.72026 118.666664 152.56236 120.0 150.47023C121.333336 148.3781 122.666664 147.07855 124.0 145.71362C125.333336 144.3487 126.666664 143.3008 128.0 142.28065C129.33333 141.26053 130.66667 140.40898 132.0 139.59282C133.33333 138.77664 134.66667 138.0644 136.0 137.38362C137.33333 136.70284 138.66667 136.09227 140.0 135.5081C141.33333 134.92392 142.66667 134.39026 144.0 133.87856C145.33333 133.36685 146.66667 132.89317 148.0 132.43788C149.33333 131.9826 150.66667 131.55695 152.0 131.14682C153.33333 130.73671 154.66667 130.35031 156.0 129.97719C157.33333 129.60408 158.66667 129.25037 160.0 128.90811C161.33333 128.56584 162.66667 128.23976 164.0 127.92364C165.33333 127.60751 166.66667 127.30506 168.0 127.01136C169.33333 126.71766 170.66667 126.43568 172.0 126.16142C173.33333 125.88716 174.66667 125.623055 176.0 125.36583C177.33333 125.108604 178.66667 124.86025 180.0 124.61806C181.33333 124.37587 182.66667 124.1415 184.0 123.91268C185.33333 123.68387 186.66667 123.462 188.0 123.24515C189.33333 123.028305 190.66667 122.81767 192.0 122.61161C193.33333 122.40554 194.66667 122.20506 196.0 122.00876C197.33333 121.812454 198.66667 121.6212 200.0 121.43377C201.33333 121.24634 202.66667 121.0635 204.0 120.88418C205.33333 120.70485 206.66667 120.52972 208.0 120.35783C209.33333 120.18594 210.66667 120.01789 212.0 119.852844C213.33333 119.6878 214.66667 119.526276 216.0 119.36755C217.33333 119.208824 218.66667 119.05335 220.0 118.900475C221.33333 118.7476 222.66667 118.59773 224.0 118.450294C225.33333 118.30286 226.66667 118.15821 228.0 118.01583C229.33333 117.87346 230.66667 117.73368 232.0 117.59603C233.33333 117.458374 234.66667 117.32315 236.0 117.189926C237.33333 117.056694 238.66667 116.925735 240.0 116.79665C241.33333 116.66757 242.66667 116.54061 244.0 116.41543C245.33333 116.290245 246.66667 116.16705 248.0 116.04553C249.33333 115.92402 250.66667 115.80438 252.0 115.68632C253.33333 115.56826 254.66667 115.45197 256.0 115.33718C257.33334 115.22239 258.66666 115.109276 260.0 114.997574C261.33334 114.88587 262.66666 114.77576 264.0 114.666985C265.33334 114.55822 266.66666 114.45094 268.0 114.344955C269.33334 114.23896 270.66666 114.13439 272.0 114.031044C273.33334 113.9277 274.66666 113.82569 276.0 113.72486C277.33334 113.62402 278.66666 113.52447 280.0 113.426025C281.33334 113.32758 282.66666 113.23036 284.0 113.1342C285.33334 113.03804 286.66666 112.94304 288.0 112.84906C289.33334 112.75507 290.66666 112.66221 292.0 112.570305C293.33334 112.47841 294.66666 112.387566 296.0 112.29766C297.33334 112.207756 298.66666 112.11886 300.0 112.03086C301.33334 111.942856 302.66666 111.85583 304.0 111.76966C305.33334 111.68349 306.66666 111.59824 308.0 111.513824C309.33334 111.42941 310.66666 111.34589 312.0 111.26315C313.33334 111.18041 314.66666 111.09854 316.0 111.01742C317.33334 110.9363 318.66666 110.85601 320.0 110.77645C321.33334 110.69689 322.66666 110.61812 324.0 110.540054C325.33334 110.462 326.66666 110.38469 328.0 110.308075C329.33334 110.23145 330.66666 110.15556 332.0 110.08033C333.33334 110.0051 334.66666 109.93057 336.0 109.85668C337.33334 109.78279 338.66666 109.70958 340.0 109.636986C341.33334 109.564384 342.66666 109.49244 344.0 109.4211C345.33334 109.34975 346.66666 109.27903 348.0 109.208885C349.33334 109.13874 350.66666 109.069214 352.0 109.00024C353.33334 108.93126 354.66666 108.86288 356.0 108.79503C357.33334 108.72718 358.66666 108.659904 360.0 108.59315C361.33334 108.52639 362.66666 108.46019 364.0 108.394485C365.33334 108.32879 366.66666 108.263626 368.0 108.19895C369.33334 108.13428 370.66666 108.07012 372.0 108.00644C373.33334 107.94276 374.66666 107.87958 376.0 107.816864C377.33334 107.75414 378.66666 107.69191 380.0 107.63013C381.33334 107.568344 382.66666 107.507034 384.0 107.44615C385.33334 107.38528 386.66666 107.32486 388.0 107.26486C389.33334 107.204865 390.66666 107.14531 392.0 107.08617C393.33334 107.02702 394.66666 106.968315 396.0 106.91C397.33334 106.85169 398.66666 106.79381 400.0 106.736305C401.33334 106.6788 402.66666 106.621704 404.0 106.564995C405.33334 106.50828 406.66666 106.45196 408.0 106.396C409.33334 106.34006 410.66666 106.28449 412.0 106.22929C413.33334 106.17408 414.66666 106.11925 416.0 106.064766C417.33334 106.010284 418.66666 105.95617 420.0 105.9024C421.33334 105.84862 422.66666 105.795204 424.0 105.74212C425.33334 105.689026 426.66666 105.63629 428.0 105.58387C429.33334 105.531456 430.66666 105.47938 432.0 105.42762C433.33334 105.375854 434.66666 105.324425 436.0 105.2733C437.33334 105.222176 438.66666 105.17137 440.0 105.12087C441.33334 105.07037 442.66666 105.02018 444.0 104.97029C445.33334 104.920395 446.66666 104.870804 448.0 104.8215C449.33334 104.7722 450.66666 104.723206 452.0 104.674484C453.33334 104.625755 454.66666 104.57733 456.0 104.529175C457.33334 104.48102 458.66666 104.43314 460.0 104.385544C461.33334 104.33794 462.66666 104.29061 464.0 104.243546C465.33334 104.19648 466.66666 104.14969 468.0 104.10316C469.33334 104.05662 470.66666 104.01035 472.0 103.96433C473.33334 103.91831 474.66666 103.87255 476.0 103.827034C477.33334 103.781525 478.66666 103.73626 480.0 103.69124C481.33334 103.64622 482.66666 103.60145 484.0 103.556915C485.33334 103.512375 486.66666 103.46808 488.0 103.42402C489.33334 103.37995 490.66666 103.33613 492.0 103.29253C493.33334 103.248924 494.66666 103.20556 496.0 103.16241C497.33334 103.11926 498.66666 103.07634 500.0 103.03364C501.33334 102.99094 502.66666 102.948456 504.0 102.90619C505.33334 102.86392 506.66666 102.82187 508.0 102.78003C509.33334 102.73819 510.66666 102.696556 512.0 102.655136C513.3333 102.61371 514.6667 102.572495 516.0 102.53148C517.3333 102.49047 518.6667 102.44966 520.0 102.40905C521.3333 102.36843 522.6667 102.328026 524.0 102.2878C525.3333 102.24758 526.6667 102.207565 528.0 102.16773C529.3333 102.1279 530.6667 102.08826 532.0 102.048805C533.3333 102.00935 534.6667 101.970085 536.0 101.93101C537.3333 101.89192 538.6667 101.85303 540.0 101.81431C541.3333 101.77559 542.6667 101.73705 544.0 101.6987C545.3333 101.66034 546.6667 101.622154 548.0 101.58415C549.3333 101.54614 550.6667 101.50831 552.0 101.47065C553.3333 101.43298 554.6667 101.39549 556.0 101.35817C557.3333 101.32085 558.6667 101.28369 560.0 101.2467C561.3333 101.20971 562.6667 101.17288 564.0 101.13622C565.3333 101.099556 566.6667 101.06306 568.0 101.02671C569.3333 100.99037 570.6667 100.954185 572.0 100.91816C573.3333 100.88213 574.6667 100.84626 576.0 100.81055C577.3333 100.774826 580.0 100.70386 580.0 100.70386" fill-rule="nonzero"/><path fill="#4285f4" clip-path="url(#id_0)" d="M115.90745 282.30844C115.90745 284.7937 113.89272 286.80844 111.40745 286.80844C108.922165 286.80844 106.90745 284.7937 106.90745 282.30844C106.90745 279.82315 108.922165 277.80844 111.40745 277.80844C113.89272 277.80844 115.90745 279.82315 115.90745 282.30844Z" fill-rule="nonzero"/><path fill="#4285f4" clip-path="url(#id_0)" d="M115.90767 273.46884C115.90767 275.95413 113.892944 277.96884 111.40767 277.96884C108.922386 277.96884 106.90767 275.95413 106.90767 273.46884C106.90767 270.98358 108.922386 268.96884 111.40767 268.96884C113.892944 268.96884 115.90767 270.98358 115.90767 273.46884Z" fill-rule="nonzero"/><path fill="#4285f4" clip-path="url(#id_0)" d="M115.908104 265.2143C115.908104 267.6996 113.89339 269.7143 111.408104 269.7143C108.92283 269.7143 106.908104 267.6996 106.908104 265.2143C106.908104 262.729 108.92283 260.7143 111.408104 260.7143C113.89339 260.7143 115.908104 262.729 115.908104 265.2143Z" fill-rule="nonzero"/><path fill="#4285f4" clip-path="url(#id_0)" d="M115.90899 256.37473C115.90899 258.86 113.89427 260.87473 111.40899 260.87473C108.923706 260.87473 106.90899 258.86 106.90899 256.37473C106.90899 253.88943 108.923706 251.87471 111.40899 251.87471C113.89427 251.87471 115.90899 253.88943 115.90899 256.37473Z" fill-rule="nonzero"/><path fill="#4285f4" clip-path="url(#id_0)" d="M115.91076 247.1737C115.91076 249.659 113.89604 251.6737 111.41076 251.6737C108.925476 251.6737 106.91076 249.659 106.91076 247.1737C106.91076 244.68843 108.925476 242.6737 111.41076 242.6737C113.89604 242.6737 115.91076 244.68843 115.91076 247.1737Z" fill-rule="nonzero"/><path fill="#4285f4" clip-path="url(#id_0)" d="M115.91429 238.75375C115.91429 241.23903 113.899574 243.25375 111.41429 243.25375C108.92901 243.25375 106.91429 241.23903 106.91429 238.75375C106.91429 236.26848 108.92901 234.25375 111.41429 234.25375C113.899574 234.25375 115.91429 236.26848 115.91429 238.75375Z" fill-rule="nonzero"/><path fill="#4285f4" clip-path="url(#id_0)" d="M115.92136 230.1102C115.92136 232.59549 113.90664 234.6102 111.42136 234.6102C108.93607 234.6102 106.92136 232.59549 106.92136 230.1102C106.92136 227.62492 108.93607 225.6102 111.42136 225.6102C113.90664 225.6102 115.92136 227.62492 115.92136 230.1102Z" fill-rule="nonzero"/><path fill="#4285f4" clip-path="url(#id_0)" d="M115.93549 221.26756C115.93549 223.75284 113.92078 225.76756 111.43549 225.76756C108.95021 225.76756 106.93549 223.75284 106.93549 221.26756C106.93549 218.78229 108.95021 216.76756 111.43549 216.76756C113.92078 216.76756 115.93549 218.78229 115.93549 221.26756Z" fill-rule="nonzero"/><path fill="#4285f4" clip-path="url(#id_0)" d="M115.96376 212.65465C115.96376 215.13992 113.94904 217.15465 111.46376 217.15465C108.97848 217.15465 106.96376 215.13992 106.96376 212.65465C106.96376 210.16936 108.97848 208.15465 111.46376 208.15465C113.94904 208.15465 115.96376 210.16936 115.96376 212.65465Z" fill-rule="nonzero"/><path fill="#4285f4" clip-path="url(#id_0)" d="M116.020294 204.20406C116.020294 206.68933 114.00558 208.70406 111.520294 208.70406C109.03501 208.70406 107.020294 206.68933 107.020294 204.20406C107.020294 201.71877 109.03501 199.70406 111.520294 199.70406C114.00558 199.70406 116.020294 201.71877 116.020294 204.20406Z" fill-rule="nonzero"/><path fill="#4285f4" clip-path="url(#id_0)" d="M116.13337 195.98012C116.13337 198.46541 114.11865 200.48012 111.63337 200.48012C109.14809 200.48012 107.13337 198.46541 107.13337 195.98012C107.13337 193.49484 109.14809 191.48012 111.63337 191.48012C114.11865 191.48012 116.13337 193.49484 116.13337 195.98012Z" fill-rule="nonzero"/><path fill="#4285f4" clip-path="url(#id_0)" d="M116.35951 186.94145C116.35951 189.42674 114.344795 191.44145 111.85951 191.44145C109.37423 191.44145 107.35951 189.42674 107.35951 186.94145C107.35951 184.45618 109.37423 182.44145 111.85951 182.44145C114.344795 182.44145 116.35951 184.45618 116.35951 186.94145Z" fill-rule="nonzero"/><path fill="#4285f4" clip-path="url(#id_0)" d="M116.8118 177.93341C116.8118 180.4187 114.79708 182.43341 112.3118 182.43341C109.826515 182.43341 107.8118 180.4187 107.8118 177.93341C107.8118 175.44814 109.826515 173.43341 112.3118 173.43341C114.79708 173.43341 116.8118 175.44814 116.8118 177.93341Z" fill-rule="nonzero"/><path fill="#4285f4" clip-path="url(#id_0)" d="M117.71638 169.90552C117.71638 172.3908 115.70166 174.40552 113.21638 174.40552C110.731094 174.40552 108.71638 172.3908 108.71638 169.90552C108.71638 167.42023 110.731094 165.40552 113.21638 165.40552C115.70166 165.40552 117.71638 167.42023 117.71638 169.90552Z" fill-rule="nonzero"/><path fill="#4285f4" clip-path="url(#id_0)" d="M119.52553 161.68158C119.52553 164.16687 117.51081 166.18158 115.02553 166.18158C112.540245 166.18158 110.52553 164.16687 110.52553 161.68158C110.52553 159.1963 112.540245 157.18158 115.02553 157.18158C117.51081 157.18158 119.52553 159.1963 119.52553 161.68158Z" fill-rule="nonzero"/><path fill="#4285f4" clip-path="url(#id_0)" d="M123.14384 152.44688C123.14384 154.93217 121.12911 156.94688 118.64384 156.94688C116.158554 156.94688 114.14384 154.93217 114.14384 152.44688C114.14384 149.96161 116.158554 147.94688 118.64384 147.94688C121.12911 147.94688 123.14384 149.96161 123.14384 152.44688Z" fill-rule="nonzero"/><path fill="#4285f4" clip-path="url(#id_0)" d="M130.38045 144.02693C130.38045 146.5122 128.36572 148.52693 125.88044 148.52693C123.395164 148.52693 121.38044 146.5122 121.38044 144.02693C121.38044 141.54166 123.395164 139.52693 125.88044 139.52693C128.36572 139.52693 130.38045 141.54166 130.38045 144.02693Z" fill-rule="nonzero"/><path fill="#4285f4" clip-path="url(#id_0)" d="M144.85367 135.77237C144.85367 138.25764 142.83894 140.27237 140.35367 140.27237C137.86838 140.27237 135.85367 138.25764 135.85367 135.77237C135.85367 133.2871 137.86838 131.27237 140.35367 131.27237C142.83894 131.27237 144.85367 133.2871 144.85367 135.77237Z" fill-rule="nonzero"/><path fill="#4285f4" clip-path="url(#id_0)" d="M173.8001 126.537674C173.8001 129.02296 171.78539 131.03767 169.3001 131.03767C166.81482 131.03767 164.8001 129.02296 164.8001 126.537674C164.8001 124.0524 166.81482 122.037674 169.3001 122.037674C171.78539 122.037674 173.8001 124.0524 173.8001 126.537674Z" fill-rule="nonzero"/><path fill="#4285f4" clip-path="url(#id_0)" d="M231.69298 117.72566C231.69298 120.210945 229.67825 122.22566 227.19298 122.22566C224.70769 122.22566 222.69298 120.210945 222.69298 117.72566C222.69298 115.24039 224.70769 113.22566 227.19298 113.22566C229.67825 113.22566 231.69298 115.24039 231.69298 117.72566Z" fill-rule="nonzero"/><path fill="#4285f4" clip-path="url(#id_0)" d="M347.47873 109.66407C347.47873 112.14935 345.46402 114.16407 342.97873 114.16407C340.49344 114.16407 338.47873 112.14935 338.47873 109.66407C338.47873 107.17879 340.49344 105.16407 342.97873 105.16407C345.46402 105.16407 347.47873 107.17879 347.47873 109.66407Z" fill-rule="nonzero"/><path fill="#4285f4" clip-path="url(#id_0)" d="M579.05023 101.24411C579.05023 103.72939 577.0355 105.74411 574.55023 105.74411C572.06494 105.74411 570.05023 103.72939 570.05023 101.24411C570.05023 98.75883 572.06494 96.74411 574.55023 96.74411C577.0355 96.74411 579.05023 98.75883 579.05023 101.24411Z" fill-rule="nonzero"/><path fill="#424242" d="M300.48438 349.45L300.48438 340.91876L302.90625 340.91876Q304.01562 340.91876 304.85938 341.41876Q305.71875 341.90314 306.1875 342.8094Q306.65625 343.71564 306.65625 344.90314L306.65625 345.4344Q306.65625 346.65314 306.1875 347.5594Q305.73438 348.46564 304.85938 348.95Q304.0 349.4344 302.85938 349.45L300.48438 349.45ZM301.60938 341.84064L301.60938 348.52814L302.79688 348.52814Q304.09375 348.52814 304.8125 347.73126Q305.54688 346.91876 305.54688 345.41876L305.54688 344.91876Q305.54688 343.46564 304.85938 342.66876Q304.1875 341.85626 302.92188 341.84064L301.60938 341.84064ZM312.23438 349.45Q312.14062 349.2625 312.07812 348.77814Q311.32812 349.575 310.28125 349.575Q309.34375 349.575 308.73438 349.04376Q308.14062 348.5125 308.14062 347.6844Q308.14062 346.7 308.89062 346.15314Q309.64062 345.60626 311.01562 345.60626L312.0625 345.60626L312.0625 345.10626Q312.0625 344.54376 311.71875 344.21564Q311.39062 343.8719 310.71875 343.8719Q310.14062 343.8719 309.75 344.16876Q309.35938 344.45 309.35938 344.8719L308.26562 344.8719Q308.26562 344.3875 308.59375 343.95Q308.9375 343.5125 309.51562 343.2625Q310.09375 342.9969 310.78125 342.9969Q311.89062 342.9969 312.5 343.54376Q313.125 344.09064 313.15625 345.04376L313.15625 347.96564Q313.15625 348.84064 313.375 349.35626L313.375 349.45L312.23438 349.45ZM310.4375 348.6219Q310.95312 348.6219 311.40625 348.35626Q311.85938 348.09064 312.0625 347.66876L312.0625 346.3719L311.21875 346.3719Q309.21875 346.3719 309.21875 347.54376Q309.21875 348.04376 309.5625 348.34064Q309.90625 348.6219 310.4375 348.6219ZM316.79688 341.575L316.79688 343.10626L317.96875 343.10626L317.96875 343.95L316.79688 343.95L316.79688 347.8719Q316.79688 348.2625 316.95312 348.45Q317.10938 348.6375 317.48438 348.6375Q317.67188 348.6375 318.0 348.575L318.0 349.45Q317.57812 349.575 317.17188 349.575Q316.45312 349.575 316.07812 349.1375Q315.70312 348.6844 315.70312 347.8719L315.70312 343.95L314.54688 343.95L314.54688 343.10626L315.70312 343.10626L315.70312 341.575L316.79688 341.575ZM323.23438 349.45Q323.14062 349.2625 323.07812 348.77814Q322.32812 349.575 321.28125 349.575Q320.34375 349.575 319.73438 349.04376Q319.14062 348.5125 319.14062 347.6844Q319.14062 346.7 319.89062 346.15314Q320.64062 345.60626 322.01562 345.60626L323.0625 345.60626L323.0625 345.10626Q323.0625 344.54376 322.71875 344.21564Q322.39062 343.8719 321.71875 343.8719Q321.14062 343.8719 320.75 344.16876Q320.35938 344.45 320.35938 344.8719L319.26562 344.8719Q319.26562 344.3875 319.59375 343.95Q319.9375 343.5125 320.51562 343.2625Q321.09375 342.9969 321.78125 342.9969Q322.89062 342.9969 323.5 343.54376Q324.125 344.09064 324.15625 345.04376L324.15625 347.96564Q324.15625 348.84064 324.375 349.35626L324.375 349.45L323.23438 349.45ZM321.4375 348.6219Q321.95312 348.6219 322.40625 348.35626Q322.85938 348.09064 323.0625 347.66876L323.0625 346.3719L322.21875 346.3719Q320.21875 346.3719 320.21875 347.54376Q320.21875 348.04376 320.5625 348.34064Q320.90625 348.6219 321.4375 348.6219ZM332.0 345.65314Q330.5625 345.23126 329.89062 344.6219Q329.23438 344.0125 329.23438 343.1219Q329.23438 342.1219 330.03125 341.46564Q330.84375 340.79376 332.14062 340.79376Q333.01562 340.79376 333.70312 341.1375Q334.39062 341.48126 334.76562 342.075Q335.15625 342.66876 335.15625 343.3875L334.01562 343.3875Q334.01562 342.60626 333.51562 342.16876Q333.03125 341.73126 332.14062 341.73126Q331.3125 341.73126 330.84375 342.10626Q330.375 342.46564 330.375 343.10626Q330.375 343.6375 330.8125 343.9969Q331.26562 344.35626 332.32812 344.65314Q333.39062 344.95 333.98438 345.3094Q334.59375 345.66876 334.875 346.15314Q335.17188 346.6375 335.17188 347.27814Q335.17188 348.325 334.35938 348.95Q333.54688 349.575 332.20312 349.575Q331.3125 349.575 330.54688 349.23126Q329.79688 348.8875 329.375 348.3094Q328.96875 347.71564 328.96875 346.98126L330.09375 346.98126Q330.09375 347.7469 330.67188 348.2Q331.25 348.65314 332.20312 348.65314Q333.09375 348.65314 333.5625 348.29376Q334.03125 347.91876 334.03125 347.29376Q334.03125 346.66876 333.59375 346.325Q333.15625 345.98126 332.0 345.65314ZM337.5 349.45L336.42188 349.45L336.42188 343.10626L337.5 343.10626L337.5 349.45ZM336.32812 341.4344Q336.32812 341.16876 336.48438 340.98126Q336.65625 340.79376 336.96875 340.79376Q337.28125 340.79376 337.4375 340.98126Q337.60938 341.16876 337.60938 341.4344Q337.60938 341.6844 337.4375 341.8719Q337.28125 342.04376 336.96875 342.04376Q336.65625 342.04376 336.48438 341.8719Q336.32812 341.6844 336.32812 341.4344ZM340.34375 348.5594L344.04688 348.5594L344.04688 349.45L339.01562 349.45L339.01562 348.65314L342.51562 344.0125L339.0625 344.0125L339.0625 343.10626L343.875 343.10626L343.875 343.8719L340.34375 348.5594ZM347.95312 349.575Q346.65625 349.575 345.84375 348.73126Q345.04688 347.8719 345.04688 346.45L345.04688 346.2625Q345.04688 345.3094 345.40625 344.575Q345.76562 343.825 346.40625 343.41876Q347.0625 342.9969 347.8125 342.9969Q349.04688 342.9969 349.73438 343.8094Q350.42188 344.6219 350.42188 346.1375L350.42188 346.59064L346.125 346.59064Q346.15625 347.52814 346.67188 348.10626Q347.20312 348.6844 348.01562 348.6844Q348.57812 348.6844 348.96875 348.45Q349.375 348.21564 349.6875 347.825L350.34375 348.34064Q349.54688 349.575 347.95312 349.575ZM347.8125 343.8875Q347.15625 343.8875 346.70312 344.3719Q346.26562 344.84064 346.17188 345.7L349.34375 345.7L349.34375 345.6219Q349.29688 344.79376 348.89062 344.34064Q348.5 343.8875 347.8125 343.8875ZM354.28125 345.98126Q354.28125 344.66876 354.625 343.45Q354.98438 342.23126 355.6875 341.23126Q356.39062 340.23126 357.15625 339.825L357.375 340.54376Q356.51562 341.2 355.96875 342.54376Q355.42188 343.8875 355.375 345.5594L355.35938 346.0594Q355.35938 348.325 356.1875 349.98126Q356.6875 350.98126 357.375 351.54376L357.15625 352.2Q356.375 351.77814 355.65625 350.7469Q354.28125 348.7625 354.28125 345.98126ZM359.9375 340.91876L362.73438 347.8719L365.51562 340.91876L366.98438 340.91876L366.98438 349.45L365.85938 349.45L365.85938 346.1219L365.96875 342.54376L363.15625 349.45L362.29688 349.45L359.5 342.5594L359.60938 346.1219L359.60938 349.45L358.48438 349.45L358.48438 340.91876L359.9375 340.91876ZM369.5 349.45L368.42188 349.45L368.42188 343.10626L369.5 343.10626L369.5 349.45ZM368.32812 341.4344Q368.32812 341.16876 368.48438 340.98126Q368.65625 340.79376 368.96875 340.79376Q369.28125 340.79376 369.4375 340.98126Q369.60938 341.16876 369.60938 341.4344Q369.60938 341.6844 369.4375 341.8719Q369.28125 342.04376 368.96875 342.04376Q368.65625 342.04376 368.48438 341.8719Q368.32812 341.6844 368.32812 341.4344ZM371.48438 349.45L371.48438 340.91876L374.28125 340.91876Q375.67188 340.91876 376.35938 341.4969Q377.0625 342.0594 377.0625 343.1844Q377.0625 343.79376 376.71875 344.2625Q376.39062 344.71564 375.79688 344.96564Q376.5 345.15314 376.89062 345.7Q377.29688 346.23126 377.29688 346.98126Q377.29688 348.1375 376.54688 348.79376Q375.8125 349.45 374.45312 349.45L371.48438 349.45ZM372.60938 345.46564L372.60938 348.52814L374.46875 348.52814Q375.26562 348.52814 375.71875 348.1219Q376.17188 347.71564 376.17188 346.9969Q376.17188 345.46564 374.48438 345.46564L372.60938 345.46564ZM372.60938 344.5594L374.3125 344.5594Q375.04688 344.5594 375.48438 344.2Q375.9375 343.825 375.9375 343.1844Q375.9375 342.48126 375.53125 342.16876Q375.125 341.84064 374.28125 341.84064L372.60938 341.84064L372.60938 344.5594ZM380.82812 346.04376Q380.82812 347.35626 380.48438 348.5594Q380.14062 349.7469 379.42188 350.7625Q378.71875 351.77814 377.95312 352.2L377.71875 351.54376Q378.625 350.85626 379.17188 349.40314Q379.71875 347.9344 379.73438 346.16876L379.73438 345.98126Q379.73438 344.7469 379.46875 343.6844Q379.21875 342.6219 378.75 341.79376Q378.29688 340.95 377.71875 340.48126L377.95312 339.825Q378.71875 340.2469 379.42188 341.2469Q380.125 342.2469 380.46875 343.46564Q380.82812 344.66876 380.82812 346.04376Z" fill-rule="nonzero"/><path fill="#424242" d="M29.425013 199.88646Q30.050013 200.32396 30.362513 201.10521Q30.675013 201.88646 30.675013 202.91771Q30.675013 203.94896 30.190638 204.76146Q29.690638 205.57396 28.784388 206.01146Q27.878138 206.44896 26.690638 206.46458L25.956263 206.46458Q24.018763 206.46458 22.956263 205.57396Q21.893763 204.66771 21.893763 203.04271Q21.893763 201.69896 22.581263 200.88646Q23.268763 200.07396 24.518763 199.88646L24.518763 201.01146Q22.831263 201.33958 22.831263 203.02708Q22.831263 204.16771 23.628138 204.74583Q24.409388 205.32396 25.925013 205.33958L26.612513 205.33958Q28.050013 205.33958 28.909388 204.68333Q29.753138 204.02708 29.753138 202.90208Q29.753138 202.27708 29.612513 201.80833Q29.471888 201.32396 29.128138 201.01146L27.221888 201.01146L27.221888 202.98021L26.300013 202.98021L26.300013 199.88646L29.425013 199.88646ZM30.550013 194.44896Q30.362513 194.54271 29.878138 194.60521Q30.675013 195.35521 30.675013 196.40208Q30.675013 197.33958 30.143763 197.94896Q29.612513 198.54271 28.784388 198.54271Q27.800013 198.54271 27.253138 197.79271Q26.706263 197.04271 26.706263 195.66771L26.706263 194.62083L26.206263 194.62083Q25.643763 194.62083 25.315638 194.96458Q24.971888 195.29271 24.971888 195.96458Q24.971888 196.54271 25.268763 196.93333Q25.550013 197.32396 25.971888 197.32396L25.971888 198.41771Q25.487513 198.41771 25.050013 198.08958Q24.612513 197.74583 24.362513 197.16771Q24.096888 196.58958 24.096888 195.90208Q24.096888 194.79271 24.643763 194.18333Q25.190638 193.55833 26.143763 193.52708L29.065638 193.52708Q29.940638 193.52708 30.456263 193.30833L30.550013 193.30833L30.550013 194.44896ZM29.721888 196.24583Q29.721888 195.73021 29.456263 195.27708Q29.190638 194.82396 28.768763 194.62083L27.471888 194.62083L27.471888 195.46458Q27.471888 197.46458 28.643763 197.46458Q29.143763 197.46458 29.440638 197.12083Q29.721888 196.77708 29.721888 196.24583ZM28.862513 187.66771Q28.425013 187.66771 28.190638 188.01146Q27.940638 188.33958 27.768763 189.16771Q27.596888 189.98021 27.346888 190.46458Q27.096888 190.94896 26.768763 191.18333Q26.425013 191.40208 25.956263 191.40208Q25.175013 191.40208 24.643763 190.74583Q24.096888 190.08958 24.096888 189.05833Q24.096888 187.98021 24.659388 187.32396Q25.206263 186.65208 26.065638 186.65208L26.065638 187.73021Q25.628138 187.73021 25.315638 188.12083Q24.987513 188.49583 24.987513 189.05833Q24.987513 189.65208 25.253138 189.99583Q25.503138 190.32396 25.909388 190.32396Q26.300013 190.32396 26.503138 190.01146Q26.706263 189.69896 26.893763 188.88646Q27.065638 188.07396 27.315638 187.57396Q27.565638 187.07396 27.925013 186.83958Q28.284388 186.58958 28.784388 186.58958Q29.643763 186.58958 30.159388 187.27708Q30.675013 187.94896 30.675013 189.02708Q30.675013 189.79271 30.409388 190.38646Q30.128138 190.96458 29.643763 191.29271Q29.159388 191.62083 28.596888 191.62083L28.596888 190.54271Q29.143763 190.51146 29.471888 190.10521Q29.784388 189.69896 29.784388 189.02708Q29.784388 188.41771 29.534388 188.04271Q29.284388 187.66771 28.862513 187.66771ZM27.846888 175.91771Q29.190638 176.07396 29.940638 176.91771Q30.675013 177.76146 30.675013 179.15208Q30.675013 180.66771 29.596888 181.57396Q28.503138 182.48021 26.675013 182.48021L25.862513 182.48021Q24.675013 182.48021 23.768763 182.05833Q22.862513 181.63646 22.378138 180.85521Q21.893763 180.07396 21.893763 179.05833Q21.893763 177.69896 22.659388 176.88646Q23.425013 176.05833 24.753138 175.91771L24.753138 177.04271Q23.737513 177.19896 23.284388 177.68333Q22.831263 178.16771 22.831263 179.05833Q22.831263 180.13646 23.628138 180.74583Q24.425013 181.35521 25.893763 181.35521L26.721888 181.35521Q28.112513 181.35521 28.940638 180.77708Q29.753138 180.19896 29.753138 179.15208Q29.753138 178.21458 29.331263 177.71458Q28.893763 177.21458 27.846888 177.04271L27.846888 175.91771ZM27.315638 174.65208Q26.393763 174.65208 25.643763 174.29271Q24.893763 173.91771 24.503138 173.26146Q24.096888 172.60521 24.096888 171.77708Q24.096888 170.48021 24.987513 169.68333Q25.878138 168.87083 27.378138 168.87083L27.456263 168.87083Q28.378138 168.87083 29.112513 169.23021Q29.846888 169.58958 30.268763 170.24583Q30.675013 170.90208 30.675013 171.76146Q30.675013 173.04271 29.784388 173.85521Q28.878138 174.65208 27.393763 174.65208L27.315638 174.65208ZM27.456263 173.55833Q28.503138 173.55833 29.143763 173.07396Q29.784388 172.57396 29.784388 171.76146Q29.784388 170.93333 29.143763 170.44896Q28.487513 169.96458 27.315638 169.96458Q26.284388 169.96458 25.643763 170.46458Q24.987513 170.94896 24.987513 171.77708Q24.987513 172.57396 25.628138 173.07396Q26.253138 173.55833 27.456263 173.55833ZM28.862513 163.66771Q28.425013 163.66771 28.190638 164.01146Q27.940638 164.33958 27.768763 165.16771Q27.596888 165.98021 27.346888 166.46458Q27.096888 166.94896 26.768763 167.18333Q26.425013 167.40208 25.956263 167.40208Q25.175013 167.40208 24.643763 166.74583Q24.096888 166.08958 24.096888 165.05833Q24.096888 163.98021 24.659388 163.32396Q25.206263 162.65208 26.065638 162.65208L26.065638 163.73021Q25.628138 163.73021 25.315638 164.12083Q24.987513 164.49583 24.987513 165.05833Q24.987513 165.65208 25.253138 165.99583Q25.503138 166.32396 25.909388 166.32396Q26.300013 166.32396 26.503138 166.01146Q26.706263 165.69896 26.893763 164.88646Q27.065638 164.07396 27.315638 163.57396Q27.565638 163.07396 27.925013 162.83958Q28.284388 162.58958 28.784388 162.58958Q29.643763 162.58958 30.159388 163.27708Q30.675013 163.94896 30.675013 165.02708Q30.675013 165.79271 30.409388 166.38646Q30.128138 166.96458 29.643763 167.29271Q29.159388 167.62083 28.596888 167.62083L28.596888 166.54271Q29.143763 166.51146 29.471888 166.10521Q29.784388 165.69896 29.784388 165.02708Q29.784388 164.41771 29.534388 164.04271Q29.284388 163.66771 28.862513 163.66771ZM22.675013 159.88646L24.206263 159.88646L24.206263 158.71458L25.050013 158.71458L25.050013 159.88646L28.971888 159.88646Q29.362513 159.88646 29.550013 159.73021Q29.737513 159.57396 29.737513 159.19896Q29.737513 159.01146 29.675013 158.68333L30.550013 158.68333Q30.675013 159.10521 30.675013 159.51146Q30.675013 160.23021 30.237513 160.60521Q29.784388 160.98021 28.971888 160.98021L25.050013 160.98021L25.050013 162.13646L24.206263 162.13646L24.206263 160.98021L22.675013 160.98021L22.675013 159.88646Z" fill-rule="nonzero"/><path fill="#757575" d="M55.815624 302.95L54.7375 302.95L54.7375 295.73126L52.55 296.52814L52.55 295.54376L55.659374 294.3719L55.815624 294.3719L55.815624 302.95ZM64.6125 299.3094Q64.6125 301.21564 63.95625 302.15314Q63.315624 303.075 61.925 303.075Q60.565624 303.075 59.909374 302.16876Q59.253124 301.2625 59.221874 299.45L59.221874 298.0125Q59.221874 296.1219 59.8625 295.21564Q60.51875 294.29376 61.909374 294.29376Q63.284374 294.29376 63.940624 295.1844Q64.59688 296.0594 64.6125 297.90314L64.6125 299.3094ZM63.51875 297.825Q63.51875 296.45 63.128124 295.825Q62.753124 295.1844 61.909374 295.1844Q61.08125 295.1844 60.690624 295.825Q60.315624 296.45 60.315624 297.7469L60.315624 299.48126Q60.315624 300.85626 60.70625 301.52814Q61.1125 302.1844 61.925 302.1844Q62.721874 302.1844 63.1125 301.5594Q63.503124 300.9344 63.51875 299.60626L63.51875 297.825ZM71.6125 299.3094Q71.6125 301.21564 70.95625 302.15314Q70.31563 303.075 68.925 303.075Q67.56563 303.075 66.90938 302.16876Q66.25313 301.2625 66.22188 299.45L66.22188 298.0125Q66.22188 296.1219 66.8625 295.21564Q67.51875 294.29376 68.90938 294.29376Q70.28438 294.29376 70.94063 295.1844Q71.59688 296.0594 71.6125 297.90314L71.6125 299.3094ZM70.51875 297.825Q70.51875 296.45 70.12813 295.825Q69.75313 295.1844 68.90938 295.1844Q68.08125 295.1844 67.69063 295.825Q67.31563 296.45 67.31563 297.7469L67.31563 299.48126Q67.31563 300.85626 67.70625 301.52814Q68.1125 302.1844 68.925 302.1844Q69.72188 302.1844 70.1125 301.5594Q70.50313 300.9344 70.51875 299.60626L70.51875 297.825ZM78.6125 299.3094Q78.6125 301.21564 77.95625 302.15314Q77.31563 303.075 75.925 303.075Q74.56563 303.075 73.90938 302.16876Q73.25313 301.2625 73.22188 299.45L73.22188 298.0125Q73.22188 296.1219 73.8625 295.21564Q74.51875 294.29376 75.90938 294.29376Q77.28438 294.29376 77.94063 295.1844Q78.59688 296.0594 78.6125 297.90314L78.6125 299.3094ZM77.51875 297.825Q77.51875 296.45 77.12813 295.825Q76.75313 295.1844 75.90938 295.1844Q75.08125 295.1844 74.69063 295.825Q74.31563 296.45 74.31563 297.7469L74.31563 299.48126Q74.31563 300.85626 74.70625 301.52814Q75.1125 302.1844 75.925 302.1844Q76.72188 302.1844 77.1125 301.5594Q77.50313 300.9344 77.51875 299.60626L77.51875 297.825ZM85.6125 299.3094Q85.6125 301.21564 84.95625 302.15314Q84.31563 303.075 82.925 303.075Q81.56563 303.075 80.90938 302.16876Q80.25313 301.2625 80.22188 299.45L80.22188 298.0125Q80.22188 296.1219 80.8625 295.21564Q81.51875 294.29376 82.90938 294.29376Q84.28438 294.29376 84.94063 295.1844Q85.59688 296.0594 85.6125 297.90314L85.6125 299.3094ZM84.51875 297.825Q84.51875 296.45 84.12813 295.825Q83.75313 295.1844 82.90938 295.1844Q82.08125 295.1844 81.69063 295.825Q81.31563 296.45 81.31563 297.7469L81.31563 299.48126Q81.31563 300.85626 81.70625 301.52814Q82.1125 302.1844 82.925 302.1844Q83.72188 302.1844 84.1125 301.5594Q84.50313 300.9344 84.51875 299.60626L84.51875 297.825ZM92.6125 299.3094Q92.6125 301.21564 91.95625 302.15314Q91.31563 303.075 89.925 303.075Q88.56563 303.075 87.90938 302.16876Q87.25313 301.2625 87.22188 299.45L87.22188 298.0125Q87.22188 296.1219 87.8625 295.21564Q88.51875 294.29376 89.90938 294.29376Q91.28438 294.29376 91.94063 295.1844Q92.59688 296.0594 92.6125 297.90314L92.6125 299.3094ZM91.51875 297.825Q91.51875 296.45 91.12813 295.825Q90.75313 295.1844 89.90938 295.1844Q89.08125 295.1844 88.69063 295.825Q88.31563 296.45 88.31563 297.7469L88.31563 299.48126Q88.31563 300.85626 88.70625 301.52814Q89.1125 302.1844 89.925 302.1844Q90.72188 302.1844 91.1125 301.5594Q91.50313 300.9344 91.51875 299.60626L91.51875 297.825Z" fill-rule="nonzero"/><path fill="#757575" d="M55.815624 241.69167L54.7375 241.69167L54.7375 234.47292L52.55 235.26979L52.55 234.28542L55.659374 233.11354L55.815624 233.11354L55.815624 241.69167ZM64.84688 241.69167L59.253124 241.69167L59.253124 240.91042L62.20625 237.62917Q62.8625 236.87917 63.1125 236.42604Q63.3625 235.95729 63.3625 235.45729Q63.3625 234.78542 62.95625 234.36354Q62.565624 233.92604 61.878124 233.92604Q61.08125 233.92604 60.628124 234.39479Q60.175 234.84792 60.175 235.67604L59.096874 235.67604Q59.096874 234.48854 59.846874 233.76979Q60.6125 233.03542 61.878124 233.03542Q63.08125 233.03542 63.76875 233.66042Q64.45625 234.28542 64.45625 235.33229Q64.45625 236.58229 62.846874 238.33229L60.565624 240.80104L64.84688 240.80104L64.84688 241.69167ZM71.6125 238.05104Q71.6125 239.95729 70.95625 240.89479Q70.31563 241.81667 68.925 241.81667Q67.56563 241.81667 66.90938 240.91042Q66.25313 240.00417 66.22188 238.19167L66.22188 236.75417Q66.22188 234.86354 66.8625 233.95729Q67.51875 233.03542 68.90938 233.03542Q70.28438 233.03542 70.94063 233.92604Q71.59688 234.80104 71.6125 236.64479L71.6125 238.05104ZM70.51875 236.56667Q70.51875 235.19167 70.12813 234.56667Q69.75313 233.92604 68.90938 233.92604Q68.08125 233.92604 67.69063 234.56667Q67.31563 235.19167 67.31563 236.48854L67.31563 238.22292Q67.31563 239.59792 67.70625 240.26979Q68.1125 240.92604 68.925 240.92604Q69.72188 240.92604 70.1125 240.30104Q70.50313 239.67604 70.51875 238.34792L70.51875 236.56667ZM78.6125 238.05104Q78.6125 239.95729 77.95625 240.89479Q77.31563 241.81667 75.925 241.81667Q74.56563 241.81667 73.90938 240.91042Q73.25313 240.00417 73.22188 238.19167L73.22188 236.75417Q73.22188 234.86354 73.8625 233.95729Q74.51875 233.03542 75.90938 233.03542Q77.28438 233.03542 77.94063 233.92604Q78.59688 234.80104 78.6125 236.64479L78.6125 238.05104ZM77.51875 236.56667Q77.51875 235.19167 77.12813 234.56667Q76.75313 233.92604 75.90938 233.92604Q75.08125 233.92604 74.69063 234.56667Q74.31563 235.19167 74.31563 236.48854L74.31563 238.22292Q74.31563 239.59792 74.70625 240.26979Q75.1125 240.92604 75.925 240.92604Q76.72188 240.92604 77.1125 240.30104Q77.50313 239.67604 77.51875 238.34792L77.51875 236.56667ZM85.6125 238.05104Q85.6125 239.95729 84.95625 240.89479Q84.31563 241.81667 82.925 241.81667Q81.56563 241.81667 80.90938 240.91042Q80.25313 240.00417 80.22188 238.19167L80.22188 236.75417Q80.22188 234.86354 80.8625 233.95729Q81.51875 233.03542 82.90938 233.03542Q84.28438 233.03542 84.94063 233.92604Q85.59688 234.80104 85.6125 236.64479L85.6125 238.05104ZM84.51875 236.56667Q84.51875 235.19167 84.12813 234.56667Q83.75313 233.92604 82.90938 233.92604Q82.08125 233.92604 81.69063 234.56667Q81.31563 235.19167 81.31563 236.48854L81.31563 238.22292Q81.31563 239.59792 81.70625 240.26979Q82.1125 240.92604 82.925 240.92604Q83.72188 240.92604 84.1125 240.30104Q84.50313 239.67604 84.51875 238.34792L84.51875 236.56667ZM92.6125 238.05104Q92.6125 239.95729 91.95625 240.89479Q91.31563 241.81667 89.925 241.81667Q88.56563 241.81667 87.90938 240.91042Q87.25313 240.00417 87.22188 238.19167L87.22188 236.75417Q87.22188 234.86354 87.8625 233.95729Q88.51875 233.03542 89.90938 233.03542Q91.28438 233.03542 91.94063 233.92604Q92.59688 234.80104 92.6125 236.64479L92.6125 238.05104ZM91.51875 236.56667Q91.51875 235.19167 91.12813 234.56667Q90.75313 233.92604 89.90938 233.92604Q89.08125 233.92604 88.69063 234.56667Q88.31563 235.19167 88.31563 236.48854L88.31563 238.22292Q88.31563 239.59792 88.70625 240.26979Q89.1125 240.92604 89.925 240.92604Q90.72188 240.92604 91.1125 240.30104Q91.50313 239.67604 91.51875 238.34792L91.51875 236.56667Z" fill-rule="nonzero"/><path fill="#757575" d="M55.815624 180.43333L54.7375 180.43333L54.7375 173.21458L52.55 174.01146L52.55 173.02708L55.659374 171.85521L55.815624 171.85521L55.815624 180.43333ZM63.83125 177.57396L65.01875 177.57396L65.01875 178.44896L63.83125 178.44896L63.83125 180.43333L62.753124 180.43333L62.753124 178.44896L58.8625 178.44896L58.8625 177.80833L62.675 171.90208L63.83125 171.90208L63.83125 177.57396ZM60.096874 177.57396L62.753124 177.57396L62.753124 173.38646L62.6125 173.62083L60.096874 177.57396ZM71.6125 176.79271Q71.6125 178.69896 70.95625 179.63646Q70.31563 180.55833 68.925 180.55833Q67.56563 180.55833 66.90938 179.65208Q66.25313 178.74583 66.22188 176.93333L66.22188 175.49583Q66.22188 173.60521 66.8625 172.69896Q67.51875 171.77708 68.90938 171.77708Q70.28438 171.77708 70.94063 172.66771Q71.59688 173.54271 71.6125 175.38646L71.6125 176.79271ZM70.51875 175.30833Q70.51875 173.93333 70.12813 173.30833Q69.75313 172.66771 68.90938 172.66771Q68.08125 172.66771 67.69063 173.30833Q67.31563 173.93333 67.31563 175.23021L67.31563 176.96458Q67.31563 178.33958 67.70625 179.01146Q68.1125 179.66771 68.925 179.66771Q69.72188 179.66771 70.1125 179.04271Q70.50313 178.41771 70.51875 177.08958L70.51875 175.30833ZM78.6125 176.79271Q78.6125 178.69896 77.95625 179.63646Q77.31563 180.55833 75.925 180.55833Q74.56563 180.55833 73.90938 179.65208Q73.25313 178.74583 73.22188 176.93333L73.22188 175.49583Q73.22188 173.60521 73.8625 172.69896Q74.51875 171.77708 75.90938 171.77708Q77.28438 171.77708 77.94063 172.66771Q78.59688 173.54271 78.6125 175.38646L78.6125 176.79271ZM77.51875 175.30833Q77.51875 173.93333 77.12813 173.30833Q76.75313 172.66771 75.90938 172.66771Q75.08125 172.66771 74.69063 173.30833Q74.31563 173.93333 74.31563 175.23021L74.31563 176.96458Q74.31563 178.33958 74.70625 179.01146Q75.1125 179.66771 75.925 179.66771Q76.72188 179.66771 77.1125 179.04271Q77.50313 178.41771 77.51875 177.08958L77.51875 175.30833ZM85.6125 176.79271Q85.6125 178.69896 84.95625 179.63646Q84.31563 180.55833 82.925 180.55833Q81.56563 180.55833 80.90938 179.65208Q80.25313 178.74583 80.22188 176.93333L80.22188 175.49583Q80.22188 173.60521 80.8625 172.69896Q81.51875 171.77708 82.90938 171.77708Q84.28438 171.77708 84.94063 172.66771Q85.59688 173.54271 85.6125 175.38646L85.6125 176.79271ZM84.51875 175.30833Q84.51875 173.93333 84.12813 173.30833Q83.75313 172.66771 82.90938 172.66771Q82.08125 172.66771 81.69063 173.30833Q81.31563 173.93333 81.31563 175.23021L81.31563 176.96458Q81.31563 178.33958 81.70625 179.01146Q82.1125 179.66771 82.925 179.66771Q83.72188 179.66771 84.1125 179.04271Q84.50313 178.41771 84.51875 177.08958L84.51875 175.30833ZM92.6125 176.79271Q92.6125 178.69896 91.95625 179.63646Q91.31563 180.55833 89.925 180.55833Q88.56563 180.55833 87.90938 179.65208Q87.25313 178.74583 87.22188 176.93333L87.22188 175.49583Q87.22188 173.60521 87.8625 172.69896Q88.51875 171.77708 89.90938 171.77708Q91.28438 171.77708 91.94063 172.66771Q92.59688 173.54271 92.6125 175.38646L92.6125 176.79271ZM91.51875 175.30833Q91.51875 173.93333 91.12813 173.30833Q90.75313 172.66771 89.90938 172.66771Q89.08125 172.66771 88.69063 173.30833Q88.31563 173.93333 88.31563 175.23021L88.31563 176.96458Q88.31563 178.33958 88.70625 179.01146Q89.1125 179.66771 89.925 179.66771Q90.72188 179.66771 91.1125 179.04271Q91.50313 178.41771 91.51875 177.08958L91.51875 175.30833Z" fill-rule="nonzero"/><path fill="#757575" d="M55.815624 119.175L54.7375 119.175L54.7375 111.95625L52.55 112.75313L52.55 111.76875L55.659374 110.59688L55.815624 110.59688L55.815624 119.175ZM63.51875 110.64375L63.51875 111.55L63.315624 111.55Q62.05 111.58125 61.3 112.31563Q60.55 113.03438 60.425 114.34688Q61.1125 113.58125 62.26875 113.58125Q63.378124 113.58125 64.05 114.3625Q64.72188 115.14375 64.72188 116.39375Q64.72188 117.70625 64.00313 118.50313Q63.284374 119.3 62.065624 119.3Q60.846874 119.3 60.08125 118.3625Q59.33125 117.40938 59.33125 115.925L59.33125 115.51875Q59.33125 113.15938 60.33125 111.90938Q61.33125 110.65938 63.315624 110.64375L63.51875 110.64375ZM62.096874 114.4875Q61.534374 114.4875 61.065624 114.81563Q60.596874 115.14375 60.409374 115.65938L60.409374 116.05Q60.409374 117.1125 60.878124 117.75313Q61.3625 118.39375 62.065624 118.39375Q62.8 118.39375 63.221874 117.8625Q63.64375 117.31563 63.64375 116.44063Q63.64375 115.56563 63.221874 115.03438Q62.8 114.4875 62.096874 114.4875ZM71.6125 115.53438Q71.6125 117.44063 70.95625 118.37813Q70.31563 119.3 68.925 119.3Q67.56563 119.3 66.90938 118.39375Q66.25313 117.4875 66.22188 115.675L66.22188 114.2375Q66.22188 112.34688 66.8625 111.44063Q67.51875 110.51875 68.90938 110.51875Q70.28438 110.51875 70.94063 111.40938Q71.59688 112.28438 71.6125 114.12813L71.6125 115.53438ZM70.51875 114.05Q70.51875 112.675 70.12813 112.05Q69.75313 111.40938 68.90938 111.40938Q68.08125 111.40938 67.69063 112.05Q67.31563 112.675 67.31563 113.97188L67.31563 115.70625Q67.31563 117.08125 67.70625 117.75313Q68.1125 118.40938 68.925 118.40938Q69.72188 118.40938 70.1125 117.78438Q70.50313 117.15938 70.51875 115.83125L70.51875 114.05ZM78.6125 115.53438Q78.6125 117.44063 77.95625 118.37813Q77.31563 119.3 75.925 119.3Q74.56563 119.3 73.90938 118.39375Q73.25313 117.4875 73.22188 115.675L73.22188 114.2375Q73.22188 112.34688 73.8625 111.44063Q74.51875 110.51875 75.90938 110.51875Q77.28438 110.51875 77.94063 111.40938Q78.59688 112.28438 78.6125 114.12813L78.6125 115.53438ZM77.51875 114.05Q77.51875 112.675 77.12813 112.05Q76.75313 111.40938 75.90938 111.40938Q75.08125 111.40938 74.69063 112.05Q74.31563 112.675 74.31563 113.97188L74.31563 115.70625Q74.31563 117.08125 74.70625 117.75313Q75.1125 118.40938 75.925 118.40938Q76.72188 118.40938 77.1125 117.78438Q77.50313 117.15938 77.51875 115.83125L77.51875 114.05ZM85.6125 115.53438Q85.6125 117.44063 84.95625 118.37813Q84.31563 119.3 82.925 119.3Q81.56563 119.3 80.90938 118.39375Q80.25313 117.4875 80.22188 115.675L80.22188 114.2375Q80.22188 112.34688 80.8625 111.44063Q81.51875 110.51875 82.90938 110.51875Q84.28438 110.51875 84.94063 111.40938Q85.59688 112.28438 85.6125 114.12813L85.6125 115.53438ZM84.51875 114.05Q84.51875 112.675 84.12813 112.05Q83.75313 111.40938 82.90938 111.40938Q82.08125 111.40938 81.69063 112.05Q81.31563 112.675 81.31563 113.97188L81.31563 115.70625Q81.31563 117.08125 81.70625 117.75313Q82.1125 118.40938 82.925 118.40938Q83.72188 118.40938 84.1125 117.78438Q84.50313 117.15938 84.51875 115.83125L84.51875 114.05ZM92.6125 115.53438Q92.6125 117.44063 91.95625 118.37813Q91.31563 119.3 89.925 119.3Q88.56563 119.3 87.90938 118.39375Q87.25313 117.4875 87.22188 115.675L87.22188 114.2375Q87.22188 112.34688 87.8625 111.44063Q88.51875 110.51875 89.90938 110.51875Q91.28438 110.51875 91.94063 111.40938Q92.59688 112.28438 92.6125 114.12813L92.6125 115.53438ZM91.51875 114.05Q91.51875 112.675 91.12813 112.05Q90.75313 111.40938 89.90938 111.40938Q89.08125 111.40938 88.69063 112.05Q88.31563 112.675 88.31563 113.97188L88.31563 115.70625Q88.31563 117.08125 88.70625 117.75313Q89.1125 118.40938 89.925 118.40938Q90.72188 118.40938 91.1125 117.78438Q91.50313 117.15938 91.51875 115.83125L91.51875 114.05Z" fill-rule="nonzero"/><path fill="#757575" d="M55.815624 57.916668L54.7375 57.916668L54.7375 50.697918L52.55 51.494793L52.55 50.510418L55.659374 49.338543L55.815624 49.338543L55.815624 57.916668ZM64.44063 51.604168Q64.44063 52.244793 64.09688 52.744793Q63.753124 53.244793 63.190624 53.526043Q63.846874 53.807293 64.2375 54.369793Q64.62813 54.916668 64.62813 55.619793Q64.62813 56.713543 63.878124 57.385418Q63.14375 58.041668 61.925 58.041668Q60.690624 58.041668 59.940624 57.385418Q59.20625 56.713543 59.20625 55.619793Q59.20625 54.916668 59.58125 54.369793Q59.95625 53.807293 60.628124 53.526043Q60.065624 53.244793 59.7375 52.744793Q59.409374 52.244793 59.409374 51.604168Q59.409374 50.526043 60.096874 49.901043Q60.784374 49.260418 61.925 49.260418Q63.05 49.260418 63.7375 49.901043Q64.44063 50.526043 64.44063 51.604168ZM63.55 55.588543Q63.55 54.869793 63.096874 54.432293Q62.64375 53.979168 61.909374 53.979168Q61.175 53.979168 60.721874 54.432293Q60.284374 54.869793 60.284374 55.604168Q60.284374 56.322918 60.721874 56.744793Q61.159374 57.151043 61.925 57.151043Q62.675 57.151043 63.1125 56.729168Q63.55 56.307293 63.55 55.588543ZM61.925 50.151043Q61.284374 50.151043 60.878124 50.557293Q60.4875 50.947918 60.4875 51.635418Q60.4875 52.276043 60.878124 52.682293Q61.26875 53.088543 61.909374 53.088543Q62.565624 53.088543 62.95625 52.682293Q63.346874 52.276043 63.346874 51.635418Q63.346874 50.979168 62.940624 50.572918Q62.534374 50.151043 61.925 50.151043ZM71.6125 54.276043Q71.6125 56.182293 70.95625 57.119793Q70.31563 58.041668 68.925 58.041668Q67.56563 58.041668 66.90938 57.135418Q66.25313 56.229168 66.22188 54.416668L66.22188 52.979168Q66.22188 51.088543 66.8625 50.182293Q67.51875 49.260418 68.90938 49.260418Q70.28438 49.260418 70.94063 50.151043Q71.59688 51.026043 71.6125 52.869793L71.6125 54.276043ZM70.51875 52.791668Q70.51875 51.416668 70.12813 50.791668Q69.75313 50.151043 68.90938 50.151043Q68.08125 50.151043 67.69063 50.791668Q67.31563 51.416668 67.31563 52.713543L67.31563 54.447918Q67.31563 55.822918 67.70625 56.494793Q68.1125 57.151043 68.925 57.151043Q69.72188 57.151043 70.1125 56.526043Q70.50313 55.901043 70.51875 54.572918L70.51875 52.791668ZM78.6125 54.276043Q78.6125 56.182293 77.95625 57.119793Q77.31563 58.041668 75.925 58.041668Q74.56563 58.041668 73.90938 57.135418Q73.25313 56.229168 73.22188 54.416668L73.22188 52.979168Q73.22188 51.088543 73.8625 50.182293Q74.51875 49.260418 75.90938 49.260418Q77.28438 49.260418 77.94063 50.151043Q78.59688 51.026043 78.6125 52.869793L78.6125 54.276043ZM77.51875 52.791668Q77.51875 51.416668 77.12813 50.791668Q76.75313 50.151043 75.90938 50.151043Q75.08125 50.151043 74.69063 50.791668Q74.31563 51.416668 74.31563 52.713543L74.31563 54.447918Q74.31563 55.822918 74.70625 56.494793Q75.1125 57.151043 75.925 57.151043Q76.72188 57.151043 77.1125 56.526043Q77.50313 55.901043 77.51875 54.572918L77.51875 52.791668ZM85.6125 54.276043Q85.6125 56.182293 84.95625 57.119793Q84.31563 58.041668 82.925 58.041668Q81.56563 58.041668 80.90938 57.135418Q80.25313 56.229168 80.22188 54.416668L80.22188 52.979168Q80.22188 51.088543 80.8625 50.182293Q81.51875 49.260418 82.90938 49.260418Q84.28438 49.260418 84.94063 50.151043Q85.59688 51.026043 85.6125 52.869793L85.6125 54.276043ZM84.51875 52.791668Q84.51875 51.416668 84.12813 50.791668Q83.75313 50.151043 82.90938 50.151043Q82.08125 50.151043 81.69063 50.791668Q81.31563 51.416668 81.31563 52.713543L81.31563 54.447918Q81.31563 55.822918 81.70625 56.494793Q82.1125 57.151043 82.925 57.151043Q83.72188 57.151043 84.1125 56.526043Q84.50313 55.901043 84.51875 54.572918L84.51875 52.791668ZM92.6125 54.276043Q92.6125 56.182293 91.95625 57.119793Q91.31563 58.041668 89.925 58.041668Q88.56563 58.041668 87.90938 57.135418Q87.25313 56.229168 87.22188 54.416668L87.22188 52.979168Q87.22188 51.088543 87.8625 50.182293Q88.51875 49.260418 89.90938 49.260418Q91.28438 49.260418 91.94063 50.151043Q92.59688 51.026043 92.6125 52.869793L92.6125 54.276043ZM91.51875 52.791668Q91.51875 51.416668 91.12813 50.791668Q90.75313 50.151043 89.90938 50.151043Q89.08125 50.151043 88.69063 50.791668Q88.31563 51.416668 88.31563 52.713543L88.31563 54.447918Q88.31563 55.822918 88.70625 56.494793Q89.1125 57.151043 89.925 57.151043Q90.72188 57.151043 91.1125 56.526043Q91.50313 55.901043 91.51875 54.572918L91.51875 52.791668Z" fill-rule="nonzero"/><path fill="#757575" d="M113.96973 312.8094Q113.96973 314.71564 113.31348 315.65314Q112.67285 316.575 111.28223 316.575Q109.92285 316.575 109.2666 315.66876Q108.61035 314.7625 108.5791 312.95L108.5791 311.5125Q108.5791 309.6219 109.21973 308.71564Q109.87598 307.79376 111.2666 307.79376Q112.6416 307.79376 113.29785 308.6844Q113.9541 309.5594 113.96973 311.40314L113.96973 312.8094ZM112.87598 311.325Q112.87598 309.95 112.48535 309.325Q112.11035 308.6844 111.2666 308.6844Q110.43848 308.6844 110.04785 309.325Q109.67285 309.95 109.67285 311.2469L109.67285 312.98126Q109.67285 314.35626 110.06348 315.02814Q110.46973 315.6844 111.28223 315.6844Q112.0791 315.6844 112.46973 315.0594Q112.86035 314.4344 112.87598 313.10626L112.87598 311.325Z" fill-rule="nonzero"/><path fill="#757575" d="M220.24509 316.45L219.16696 316.45L219.16696 309.23126L216.97946 310.02814L216.97946 309.04376L220.08884 307.8719L220.24509 307.8719L220.24509 316.45ZM229.04196 312.8094Q229.04196 314.71564 228.38571 315.65314Q227.74509 316.575 226.35446 316.575Q224.99509 316.575 224.33884 315.66876Q223.68259 314.7625 223.65134 312.95L223.65134 311.5125Q223.65134 309.6219 224.29196 308.71564Q224.94821 307.79376 226.33884 307.79376Q227.71384 307.79376 228.37009 308.6844Q229.02634 309.5594 229.04196 311.40314L229.04196 312.8094ZM227.94821 311.325Q227.94821 309.95 227.55759 309.325Q227.18259 308.6844 226.33884 308.6844Q225.51071 308.6844 225.12009 309.325Q224.74509 309.95 224.74509 311.2469L224.74509 312.98126Q224.74509 314.35626 225.13571 315.02814Q225.54196 315.6844 226.35446 315.6844Q227.15134 315.6844 227.54196 315.0594Q227.93259 314.4344 227.94821 313.10626L227.94821 311.325ZM236.04196 312.8094Q236.04196 314.71564 235.38571 315.65314Q234.74509 316.575 233.35446 316.575Q231.99509 316.575 231.33884 315.66876Q230.68259 314.7625 230.65134 312.95L230.65134 311.5125Q230.65134 309.6219 231.29196 308.71564Q231.94821 307.79376 233.33884 307.79376Q234.71384 307.79376 235.37009 308.6844Q236.02634 309.5594 236.04196 311.40314L236.04196 312.8094ZM234.94821 311.325Q234.94821 309.95 234.55759 309.325Q234.18259 308.6844 233.33884 308.6844Q232.51071 308.6844 232.12009 309.325Q231.74509 309.95 231.74509 311.2469L231.74509 312.98126Q231.74509 314.35626 232.13571 315.02814Q232.54196 315.6844 233.35446 315.6844Q234.15134 315.6844 234.54196 315.0594Q234.93259 314.4344 234.94821 313.10626L234.94821 311.325ZM243.04196 312.8094Q243.04196 314.71564 242.38571 315.65314Q241.74509 316.575 240.35446 316.575Q238.99509 316.575 238.33884 315.66876Q237.68259 314.7625 237.65134 312.95L237.65134 311.5125Q237.65134 309.6219 238.29196 308.71564Q238.94821 307.79376 240.33884 307.79376Q241.71384 307.79376 242.37009 308.6844Q243.02634 309.5594 243.04196 311.40314L243.04196 312.8094ZM241.94821 311.325Q241.94821 309.95 241.55759 309.325Q241.18259 308.6844 240.33884 308.6844Q239.51071 308.6844 239.12009 309.325Q238.74509 309.95 238.74509 311.2469L238.74509 312.98126Q238.74509 314.35626 239.13571 315.02814Q239.54196 315.6844 240.35446 315.6844Q241.15134 315.6844 241.54196 315.0594Q241.93259 314.4344 241.94821 313.10626L241.94821 311.325Z" fill-rule="nonzero"/><path fill="#757575" d="M340.84857 316.45L335.25482 316.45L335.25482 315.66876L338.20795 312.3875Q338.8642 311.6375 339.1142 311.1844Q339.3642 310.71564 339.3642 310.21564Q339.3642 309.54376 338.95795 309.1219Q338.56732 308.6844 337.87982 308.6844Q337.08295 308.6844 336.62982 309.15314Q336.1767 309.60626 336.1767 310.4344L335.09857 310.4344Q335.09857 309.2469 335.84857 308.52814Q336.6142 307.79376 337.87982 307.79376Q339.08295 307.79376 339.77045 308.41876Q340.45795 309.04376 340.45795 310.09064Q340.45795 311.34064 338.84857 313.09064L336.56732 315.5594L340.84857 315.5594L340.84857 316.45ZM347.6142 312.8094Q347.6142 314.71564 346.95795 315.65314Q346.31732 316.575 344.9267 316.575Q343.56732 316.575 342.91107 315.66876Q342.25482 314.7625 342.22357 312.95L342.22357 311.5125Q342.22357 309.6219 342.8642 308.71564Q343.52045 307.79376 344.91107 307.79376Q346.28607 307.79376 346.94232 308.6844Q347.59857 309.5594 347.6142 311.40314L347.6142 312.8094ZM346.52045 311.325Q346.52045 309.95 346.12982 309.325Q345.75482 308.6844 344.91107 308.6844Q344.08295 308.6844 343.69232 309.325Q343.31732 309.95 343.31732 311.2469L343.31732 312.98126Q343.31732 314.35626 343.70795 315.02814Q344.1142 315.6844 344.9267 315.6844Q345.72357 315.6844 346.1142 315.0594Q346.50482 314.4344 346.52045 313.10626L346.52045 311.325ZM354.6142 312.8094Q354.6142 314.71564 353.95795 315.65314Q353.31732 316.575 351.9267 316.575Q350.56732 316.575 349.91107 315.66876Q349.25482 314.7625 349.22357 312.95L349.22357 311.5125Q349.22357 309.6219 349.8642 308.71564Q350.52045 307.79376 351.91107 307.79376Q353.28607 307.79376 353.94232 308.6844Q354.59857 309.5594 354.6142 311.40314L354.6142 312.8094ZM353.52045 311.325Q353.52045 309.95 353.12982 309.325Q352.75482 308.6844 351.91107 308.6844Q351.08295 308.6844 350.69232 309.325Q350.31732 309.95 350.31732 311.2469L350.31732 312.98126Q350.31732 314.35626 350.70795 315.02814Q351.1142 315.6844 351.9267 315.6844Q352.72357 315.6844 353.1142 315.0594Q353.50482 314.4344 353.52045 313.10626L353.52045 311.325ZM361.6142 312.8094Q361.6142 314.71564 360.95795 315.65314Q360.31732 316.575 358.9267 316.575Q357.56732 316.575 356.91107 315.66876Q356.25482 314.7625 356.22357 312.95L356.22357 311.5125Q356.22357 309.6219 356.8642 308.71564Q357.52045 307.79376 358.91107 307.79376Q360.28607 307.79376 360.94232 308.6844Q361.59857 309.5594 361.6142 311.40314L361.6142 312.8094ZM360.52045 311.325Q360.52045 309.95 360.12982 309.325Q359.75482 308.6844 358.91107 308.6844Q358.08295 308.6844 357.69232 309.325Q357.31732 309.95 357.31732 311.2469L357.31732 312.98126Q357.31732 314.35626 357.70795 315.02814Q358.1142 315.6844 358.9267 315.6844Q359.72357 315.6844 360.1142 315.0594Q360.50482 314.4344 360.52045 313.10626L360.52045 311.325Z" fill-rule="nonzero"/><path fill="#757575" d="M455.40518 311.65314L456.21768 311.65314Q456.99893 311.6375 457.43643 311.2469Q457.87393 310.85626 457.87393 310.1844Q457.87393 308.6844 456.37393 308.6844Q455.6708 308.6844 455.24893 309.09064Q454.84268 309.4969 454.84268 310.15314L453.74893 310.15314Q453.74893 309.1375 454.4833 308.46564Q455.2333 307.79376 456.37393 307.79376Q457.57706 307.79376 458.26456 308.4344Q458.95206 309.075 458.95206 310.21564Q458.95206 310.77814 458.59268 311.29376Q458.2333 311.8094 457.6083 312.075Q458.31143 312.29376 458.68643 312.8094Q459.07706 313.325 459.07706 314.075Q459.07706 315.21564 458.32706 315.90314Q457.57706 316.575 456.37393 316.575Q455.18643 316.575 454.4208 315.91876Q453.6708 315.2625 453.6708 314.2L454.76456 314.2Q454.76456 314.8719 455.20206 315.27814Q455.63956 315.6844 456.38956 315.6844Q457.1708 315.6844 457.57706 315.27814Q457.99893 314.85626 457.99893 314.09064Q457.99893 313.35626 457.5458 312.96564Q457.09268 312.5594 456.21768 312.54376L455.40518 312.54376L455.40518 311.65314ZM466.18643 312.8094Q466.18643 314.71564 465.53018 315.65314Q464.88956 316.575 463.49893 316.575Q462.13956 316.575 461.4833 315.66876Q460.82706 314.7625 460.7958 312.95L460.7958 311.5125Q460.7958 309.6219 461.43643 308.71564Q462.09268 307.79376 463.4833 307.79376Q464.8583 307.79376 465.51456 308.6844Q466.1708 309.5594 466.18643 311.40314L466.18643 312.8094ZM465.09268 311.325Q465.09268 309.95 464.70206 309.325Q464.32706 308.6844 463.4833 308.6844Q462.65518 308.6844 462.26456 309.325Q461.88956 309.95 461.88956 311.2469L461.88956 312.98126Q461.88956 314.35626 462.28018 315.02814Q462.68643 315.6844 463.49893 315.6844Q464.2958 315.6844 464.68643 315.0594Q465.07706 314.4344 465.09268 313.10626L465.09268 311.325ZM473.18643 312.8094Q473.18643 314.71564 472.53018 315.65314Q471.88956 316.575 470.49893 316.575Q469.13956 316.575 468.4833 315.66876Q467.82706 314.7625 467.7958 312.95L467.7958 311.5125Q467.7958 309.6219 468.43643 308.71564Q469.09268 307.79376 470.4833 307.79376Q471.8583 307.79376 472.51456 308.6844Q473.1708 309.5594 473.18643 311.40314L473.18643 312.8094ZM472.09268 311.325Q472.09268 309.95 471.70206 309.325Q471.32706 308.6844 470.4833 308.6844Q469.65518 308.6844 469.26456 309.325Q468.88956 309.95 468.88956 311.2469L468.88956 312.98126Q468.88956 314.35626 469.28018 315.02814Q469.68643 315.6844 470.49893 315.6844Q471.2958 315.6844 471.68643 315.0594Q472.07706 314.4344 472.09268 313.10626L472.09268 311.325ZM480.18643 312.8094Q480.18643 314.71564 479.53018 315.65314Q478.88956 316.575 477.49893 316.575Q476.13956 316.575 475.4833 315.66876Q474.82706 314.7625 474.7958 312.95L474.7958 311.5125Q474.7958 309.6219 475.43643 308.71564Q476.09268 307.79376 477.4833 307.79376Q478.8583 307.79376 479.51456 308.6844Q480.1708 309.5594 480.18643 311.40314L480.18643 312.8094ZM479.09268 311.325Q479.09268 309.95 478.70206 309.325Q478.32706 308.6844 477.4833 308.6844Q476.65518 308.6844 476.26456 309.325Q475.88956 309.95 475.88956 311.2469L475.88956 312.98126Q475.88956 314.35626 476.28018 315.02814Q476.68643 315.6844 477.49893 315.6844Q478.2958 315.6844 478.68643 315.0594Q479.07706 314.4344 479.09268 313.10626L479.09268 311.325Z" fill-rule="nonzero"/><path fill="#4285f4" d="M207.0 26.05C207.0 29.363708 204.3137 32.05 201.0 32.05C197.6863 32.05 195.0 29.363708 195.0 26.05C195.0 22.736292 197.6863 20.05 201.0 20.05C204.3137 20.05 207.0 22.736292 207.0 26.05Z" fill-rule="nonzero"/><path fill="#757575" d="M222.29688 29.425Q221.85938 30.05 221.07812 30.3625Q220.29688 30.675 219.26562 30.675Q218.23438 30.675 217.42188 30.190624Q216.60938 29.690624 216.17188 28.784374Q215.73438 27.878124 215.71875 26.690624L215.71875 25.95625Q215.71875 24.01875 216.60938 22.95625Q217.51562 21.89375 219.14062 21.89375Q220.48438 21.89375 221.29688 22.58125Q222.10938 23.26875 222.29688 24.51875L221.17188 24.51875Q220.84375 22.83125 219.15625 22.83125Q218.01562 22.83125 217.4375 23.628124Q216.85938 24.409374 216.84375 25.925L216.84375 26.6125Q216.84375 28.05 217.5 28.909374Q218.15625 29.753124 219.28125 29.753124Q219.90625 29.753124 220.375 29.6125Q220.85938 29.471874 221.17188 29.128124L221.17188 27.221874L219.20312 27.221874L219.20312 26.3L222.29688 26.3L222.29688 29.425ZM227.73438 30.55Q227.64062 30.3625 227.57812 29.878124Q226.82812 30.675 225.78125 30.675Q224.84375 30.675 224.23438 30.14375Q223.64062 29.6125 223.64062 28.784374Q223.64062 27.8 224.39062 27.253124Q225.14062 26.70625 226.51562 26.70625L227.5625 26.70625L227.5625 26.20625Q227.5625 25.64375 227.21875 25.315624Q226.89062 24.971874 226.21875 24.971874Q225.64062 24.971874 225.25 25.26875Q224.85938 25.55 224.85938 25.971874L223.76562 25.971874Q223.76562 25.4875 224.09375 25.05Q224.4375 24.6125 225.01562 24.3625Q225.59375 24.096874 226.28125 24.096874Q227.39062 24.096874 228.0 24.64375Q228.625 25.190624 228.65625 26.14375L228.65625 29.065624Q228.65625 29.940624 228.875 30.45625L228.875 30.55L227.73438 30.55ZM225.9375 29.721874Q226.45312 29.721874 226.90625 29.45625Q227.35938 29.190624 227.5625 28.76875L227.5625 27.471874L226.71875 27.471874Q224.71875 27.471874 224.71875 28.64375Q224.71875 29.14375 225.0625 29.440624Q225.40625 29.721874 225.9375 29.721874ZM234.51562 28.8625Q234.51562 28.425 234.17188 28.190624Q233.84375 27.940624 233.01562 27.76875Q232.20312 27.596874 231.71875 27.346874Q231.23438 27.096874 231.0 26.76875Q230.78125 26.425 230.78125 25.95625Q230.78125 25.175 231.4375 24.64375Q232.09375 24.096874 233.125 24.096874Q234.20312 24.096874 234.85938 24.659374Q235.53125 25.20625 235.53125 26.065624L234.45312 26.065624Q234.45312 25.628124 234.0625 25.315624Q233.6875 24.9875 233.125 24.9875Q232.53125 24.9875 232.1875 25.253124Q231.85938 25.503124 231.85938 25.909374Q231.85938 26.3 232.17188 26.503124Q232.48438 26.70625 233.29688 26.89375Q234.10938 27.065624 234.60938 27.315624Q235.10938 27.565624 235.34375 27.925Q235.59375 28.284374 235.59375 28.784374Q235.59375 29.64375 234.90625 30.159374Q234.23438 30.675 233.15625 30.675Q232.39062 30.675 231.79688 30.409374Q231.21875 30.128124 230.89062 29.64375Q230.5625 29.159374 230.5625 28.596874L231.64062 28.596874Q231.67188 29.14375 232.07812 29.471874Q232.48438 29.784374 233.15625 29.784374Q233.76562 29.784374 234.14062 29.534374Q234.51562 29.284374 234.51562 28.8625ZM246.26562 27.846874Q246.10938 29.190624 245.26562 29.940624Q244.42188 30.675 243.03125 30.675Q241.51562 30.675 240.60938 29.596874Q239.70312 28.503124 239.70312 26.675L239.70312 25.8625Q239.70312 24.675 240.125 23.76875Q240.54688 22.8625 241.32812 22.378124Q242.10938 21.89375 243.125 21.89375Q244.48438 21.89375 245.29688 22.659374Q246.125 23.425 246.26562 24.753124L245.14062 24.753124Q244.98438 23.7375 244.5 23.284374Q244.01562 22.83125 243.125 22.83125Q242.04688 22.83125 241.4375 23.628124Q240.82812 24.425 240.82812 25.89375L240.82812 26.721874Q240.82812 28.1125 241.40625 28.940624Q241.98438 29.753124 243.03125 29.753124Q243.96875 29.753124 244.46875 29.33125Q244.96875 28.89375 245.14062 27.846874L246.26562 27.846874ZM247.53125 27.315624Q247.53125 26.39375 247.89062 25.64375Q248.26562 24.89375 248.92188 24.503124Q249.57812 24.096874 250.40625 24.096874Q251.70312 24.096874 252.5 24.9875Q253.3125 25.878124 253.3125 27.378124L253.3125 27.45625Q253.3125 28.378124 252.95312 29.1125Q252.59375 29.846874 251.9375 30.26875Q251.28125 30.675 250.42188 30.675Q249.14062 30.675 248.32812 29.784374Q247.53125 28.878124 247.53125 27.39375L247.53125 27.315624ZM248.625 27.45625Q248.625 28.503124 249.10938 29.14375Q249.60938 29.784374 250.42188 29.784374Q251.25 29.784374 251.73438 29.14375Q252.21875 28.4875 252.21875 27.315624Q252.21875 26.284374 251.71875 25.64375Q251.23438 24.9875 250.40625 24.9875Q249.60938 24.9875 249.10938 25.628124Q248.625 26.253124 248.625 27.45625ZM258.51562 28.8625Q258.51562 28.425 258.17188 28.190624Q257.84375 27.940624 257.01562 27.76875Q256.20312 27.596874 255.71875 27.346874Q255.23438 27.096874 255.0 26.76875Q254.78125 26.425 254.78125 25.95625Q254.78125 25.175 255.4375 24.64375Q256.09375 24.096874 257.125 24.096874Q258.20312 24.096874 258.85938 24.659374Q259.53125 25.20625 259.53125 26.065624L258.45312 26.065624Q258.45312 25.628124 258.0625 25.315624Q257.6875 24.9875 257.125 24.9875Q256.53125 24.9875 256.1875 25.253124Q255.85938 25.503124 255.85938 25.909374Q255.85938 26.3 256.17188 26.503124Q256.48438 26.70625 257.29688 26.89375Q258.10938 27.065624 258.60938 27.315624Q259.10938 27.565624 259.34375 27.925Q259.59375 28.284374 259.59375 28.784374Q259.59375 29.64375 258.90625 30.159374Q258.23438 30.675 257.15625 30.675Q256.39062 30.675 255.79688 30.409374Q255.21875 30.128124 254.89062 29.64375Q254.5625 29.159374 254.5625 28.596874L255.64062 28.596874Q255.67188 29.14375 256.07812 29.471874Q256.48438 29.784374 257.15625 29.784374Q257.76562 29.784374 258.14062 29.534374Q258.51562 29.284374 258.51562 28.8625ZM262.29688 22.675L262.29688 24.20625L263.46875 24.20625L263.46875 25.05L262.29688 25.05L262.29688 28.971874Q262.29688 29.3625 262.45312 29.55Q262.60938 29.7375 262.98438 29.7375Q263.17188 29.7375 263.5 29.675L263.5 30.55Q263.07812 30.675 262.67188 30.675Q261.95312 30.675 261.57812 30.2375Q261.20312 29.784374 261.20312 28.971874L261.20312 25.05L260.04688 25.05L260.04688 24.20625L261.20312 24.20625L261.20312 22.675L262.29688 22.675Z" fill-rule="nonzero"/><path stroke="#4285f4" stroke-width="4.0" stroke-linecap="butt" stroke-opacity="0.4" d="M280.0 26.05L292.0 26.05" fill-rule="nonzero"/><path fill="#757575" d="M304.26562 30.55L303.1875 30.55L303.1875 23.33125L301.0 24.128124L301.0 23.14375L304.10938 21.971874L304.26562 21.971874L304.26562 30.55ZM309.28125 25.753124L310.09375 25.753124Q310.875 25.7375 311.3125 25.346874Q311.75 24.95625 311.75 24.284374Q311.75 22.784374 310.25 22.784374Q309.54688 22.784374 309.125 23.190624Q308.71875 23.596874 308.71875 24.253124L307.625 24.253124Q307.625 23.2375 308.35938 22.565624Q309.10938 21.89375 310.25 21.89375Q311.45312 21.89375 312.14062 22.534374Q312.82812 23.175 312.82812 24.315624Q312.82812 24.878124 312.46875 25.39375Q312.10938 25.909374 311.48438 26.175Q312.1875 26.39375 312.5625 26.909374Q312.95312 27.425 312.95312 28.175Q312.95312 29.315624 312.20312 30.003124Q311.45312 30.675 310.25 30.675Q309.0625 30.675 308.29688 30.01875Q307.54688 29.3625 307.54688 28.3L308.64062 28.3Q308.64062 28.971874 309.07812 29.378124Q309.51562 29.784374 310.26562 29.784374Q311.04688 29.784374 311.45312 29.378124Q311.875 28.95625 311.875 28.190624Q311.875 27.45625 311.42188 27.065624Q310.96875 26.659374 310.09375 26.64375L309.28125 26.64375L309.28125 25.753124ZM320.0625 26.909374Q320.0625 28.815624 319.40625 29.753124Q318.76562 30.675 317.375 30.675Q316.01562 30.675 315.35938 29.76875Q314.70312 28.8625 314.67188 27.05L314.67188 25.6125Q314.67188 23.721874 315.3125 22.815624Q315.96875 21.89375 317.35938 21.89375Q318.73438 21.89375 319.39062 22.784374Q320.04688 23.659374 320.0625 25.503124L320.0625 26.909374ZM318.96875 25.425Q318.96875 24.05 318.57812 23.425Q318.20312 22.784374 317.35938 22.784374Q316.53125 22.784374 316.14062 23.425Q315.76562 24.05 315.76562 25.346874L315.76562 27.08125Q315.76562 28.45625 316.15625 29.128124Q316.5625 29.784374 317.375 29.784374Q318.17188 29.784374 318.5625 29.159374Q318.95312 28.534374 318.96875 27.20625L318.96875 25.425ZM325.85938 26.8Q325.53125 27.20625 325.04688 27.45625Q324.57812 27.690624 324.01562 27.690624Q323.28125 27.690624 322.73438 27.33125Q322.1875 26.971874 321.89062 26.315624Q321.59375 25.64375 321.59375 24.846874Q321.59375 24.003124 321.90625 23.315624Q322.23438 22.628124 322.82812 22.26875Q323.4375 21.89375 324.23438 21.89375Q325.5 21.89375 326.21875 22.846874Q326.95312 23.8 326.95312 25.425L326.95312 25.7375Q326.95312 28.2375 325.96875 29.378124Q324.98438 30.51875 323.0 30.55L322.78125 30.55L322.78125 29.64375L323.01562 29.64375Q324.35938 29.6125 325.07812 28.940624Q325.79688 28.26875 325.85938 26.8ZM324.1875 26.8Q324.73438 26.8 325.1875 26.471874Q325.65625 26.128124 325.875 25.64375L325.875 25.20625Q325.875 24.14375 325.40625 23.471874Q324.9375 22.8 324.23438 22.8Q323.51562 22.8 323.07812 23.346874Q322.65625 23.89375 322.65625 24.8Q322.65625 25.675 323.0625 26.2375Q323.48438 26.8 324.1875 26.8ZM332.26562 30.55L331.1875 30.55L331.1875 23.33125L329.0 24.128124L329.0 23.14375L332.10938 21.971874L332.26562 21.971874L332.26562 30.55ZM341.0625 26.909374Q341.0625 28.815624 340.40625 29.753124Q339.76562 30.675 338.375 30.675Q337.01562 30.675 336.35938 29.76875Q335.70312 28.8625 335.67188 27.05L335.67188 25.6125Q335.67188 23.721874 336.3125 22.815624Q336.96875 21.89375 338.35938 21.89375Q339.73438 21.89375 340.39062 22.784374Q341.04688 23.659374 341.0625 25.503124L341.0625 26.909374ZM339.96875 25.425Q339.96875 24.05 339.57812 23.425Q339.20312 22.784374 338.35938 22.784374Q337.53125 22.784374 337.14062 23.425Q336.76562 24.05 336.76562 25.346874L336.76562 27.08125Q336.76562 28.45625 337.15625 29.128124Q337.5625 29.784374 338.375 29.784374Q339.17188 29.784374 339.5625 29.159374Q339.95312 28.534374 339.96875 27.20625L339.96875 25.425ZM348.92188 25.971874L351.3125 25.971874L351.3125 27.003124L348.92188 27.003124L348.92188 29.690624L347.84375 29.690624L347.84375 27.003124L345.45312 27.003124L345.45312 25.971874L347.84375 25.971874L347.84375 23.4875L348.92188 23.4875L348.92188 25.971874ZM360.28125 27.690624L361.46875 27.690624L361.46875 28.565624L360.28125 28.565624L360.28125 30.55L359.20312 30.55L359.20312 28.565624L355.3125 28.565624L355.3125 27.925L359.125 22.01875L360.28125 22.01875L360.28125 27.690624ZM356.54688 27.690624L359.20312 27.690624L359.20312 23.503124L359.0625 23.7375L356.54688 27.690624ZM368.0625 26.909374Q368.0625 28.815624 367.40625 29.753124Q366.76562 30.675 365.375 30.675Q364.01562 30.675 363.35938 29.76875Q362.70312 28.8625 362.67188 27.05L362.67188 25.6125Q362.67188 23.721874 363.3125 22.815624Q363.96875 21.89375 365.35938 21.89375Q366.73438 21.89375 367.39062 22.784374Q368.04688 23.659374 368.0625 25.503124L368.0625 26.909374ZM366.96875 25.425Q366.96875 24.05 366.57812 23.425Q366.20312 22.784374 365.35938 22.784374Q364.53125 22.784374 364.14062 23.425Q363.76562 24.05 363.76562 25.346874L363.76562 27.08125Q363.76562 28.45625 364.15625 29.128124Q364.5625 29.784374 365.375 29.784374Q366.17188 29.784374 366.5625 29.159374Q366.95312 28.534374 366.96875 27.20625L366.96875 25.425ZM373.96875 22.01875L373.96875 22.925L373.76562 22.925Q372.5 22.95625 371.75 23.690624Q371.0 24.409374 370.875 25.721874Q371.5625 24.95625 372.71875 24.95625Q373.82812 24.95625 374.5 25.7375Q375.17188 26.51875 375.17188 27.76875Q375.17188 29.08125 374.45312 29.878124Q373.73438 30.675 372.51562 30.675Q371.29688 30.675 370.53125 29.7375Q369.78125 28.784374 369.78125 27.3L369.78125 26.89375Q369.78125 24.534374 370.78125 23.284374Q371.78125 22.034374 373.76562 22.01875L373.96875 22.01875ZM372.54688 25.8625Q371.98438 25.8625 371.51562 26.190624Q371.04688 26.51875 370.85938 27.034374L370.85938 27.425Q370.85938 28.4875 371.32812 29.128124Q371.8125 29.76875 372.51562 29.76875Q373.25 29.76875 373.67188 29.2375Q374.09375 28.690624 374.09375 27.815624Q374.09375 26.940624 373.67188 26.409374Q373.25 25.8625 372.54688 25.8625ZM378.28125 25.753124L379.09375 25.753124Q379.875 25.7375 380.3125 25.346874Q380.75 24.95625 380.75 24.284374Q380.75 22.784374 379.25 22.784374Q378.54688 22.784374 378.125 23.190624Q377.71875 23.596874 377.71875 24.253124L376.625 24.253124Q376.625 23.2375 377.35938 22.565624Q378.10938 21.89375 379.25 21.89375Q380.45312 21.89375 381.14062 22.534374Q381.82812 23.175 381.82812 24.315624Q381.82812 24.878124 381.46875 25.39375Q381.10938 25.909374 380.48438 26.175Q381.1875 26.39375 381.5625 26.909374Q381.95312 27.425 381.95312 28.175Q381.95312 29.315624 381.20312 30.003124Q380.45312 30.675 379.25 30.675Q378.0625 30.675 377.29688 30.01875Q376.54688 29.3625 376.54688 28.3L377.64062 28.3Q377.64062 28.971874 378.07812 29.378124Q378.51562 29.784374 379.26562 29.784374Q380.04688 29.784374 380.45312 29.378124Q380.875 28.95625 380.875 28.190624Q380.875 27.45625 380.42188 27.065624Q379.96875 26.659374 379.09375 26.64375L378.28125 26.64375L378.28125 25.753124ZM388.0 30.55L386.92188 30.55L386.92188 21.55L388.0 21.55L388.0 30.55ZM390.84375 24.20625L390.875 25.003124Q391.60938 24.096874 392.78125 24.096874Q394.79688 24.096874 394.8125 26.3625L394.8125 30.55L393.71875 30.55L393.71875 26.346874Q393.71875 25.675 393.40625 25.346874Q393.10938 25.01875 392.45312 25.01875Q391.92188 25.01875 391.51562 25.3Q391.125 25.58125 390.90625 26.034374L390.90625 30.55L389.82812 30.55L389.82812 24.20625L390.84375 24.20625ZM401.95312 26.51875L403.35938 24.20625L404.625 24.20625L402.54688 27.346874L404.6875 30.55L403.4375 30.55L401.96875 28.175L400.5 30.55L399.23438 30.55L401.375 27.346874L399.3125 24.20625L400.5625 24.20625L401.95312 26.51875Z" fill-rule="nonzero"/></svg>